<?xml version="1.0" encoding="UTF-8"?>
<svg id="Layer_1" data-name="Layer 1" xmlns="http://www.w3.org/2000/svg" viewBox="0 0 119.8 120">
  <defs>
    <style>
      .cls-1 {
        fill: #5790c3;
      }

      .cls-2 {
        fill: none;
        stroke: #fff;
        stroke-linecap: square;
        stroke-linejoin: round;
        stroke-width: 15.16px;
      }

      .cls-3 {
        fill: #6cacd7;
      }
    </style>
  </defs>
  <g id="Generative_Object" data-name="Generative Object">
    <g>
      <path class="cls-3" d="M119.69,62.11c-.04-.21-.38-.85-.38-1.26l-20.72-19.46-9.82-.14c-8.28,8.22-16.53,16.47-24.86,24.65-3.45-.98-8.87.48-12.08-.25-1.92-.43-12.16-9.68-12.89-9.35l-.18,11.94c2.98,2.92,6,6.17,9.09,8.92l-.7,10.35,30.07,29.7C12.04,136.66-29.1,49.41,25.04,11.06c40.5-28.69,96.81,1.99,94.65,51.05Z"/>
      <path class="cls-1" d="M119.69,62.11c.7,3.49-1.99,14.19-3.29,17.82-6.16,17.32-21.59,32.03-39.17,37.28l-30.07-29.7.7-10.35c-3.09-2.75-6.12-6-9.09-8.92l.18-11.94c.73-.33,10.97,8.92,12.89,9.35,3.21.73,8.63-.74,12.08.25,8.32-8.18,16.57-16.44,24.86-24.65l9.82.14,20.72,19.46c0,.41.34,1.05.38,1.26Z"/>
    </g>
    <path class="cls-2" d="M89.85,40.18l-1.08,1.07c-8.28,8.22-16.53,16.47-24.86,24.65-4.47,4.39-8.87,8.83-13.33,13.23-.86.37-2.06-1.37-2.72-1.96-3.09-2.75-6.12-6-9.09-8.92l-11.06-10.85"/>
  </g>
</svg>