<?xml version="1.0" encoding="UTF-8"?>
<svg id="Layer_1" data-name="Layer 1" xmlns="http://www.w3.org/2000/svg" xmlns:xlink="http://www.w3.org/1999/xlink" viewBox="0 0 124.57 123.73">
  <defs>
    <style>
      .cls-1 {
        fill: #33789e;
      }

      .cls-2 {
        fill: url(#linear-gradient-2);
      }

      .cls-3 {
        fill: #448baf;
      }

      .cls-4 {
        fill: #78afce;
      }

      .cls-5 {
        fill: url(#linear-gradient-4);
      }

      .cls-6 {
        fill: url(#linear-gradient-3);
      }

      .cls-7 {
        fill: #f7f8f8;
      }

      .cls-8 {
        fill: #6f98b8;
      }

      .cls-9 {
        fill: url(#linear-gradient);
      }
    </style>
    <linearGradient id="linear-gradient" x1="37.21" y1="47.1" x2="96.9" y2="105.24" gradientUnits="userSpaceOnUse">
      <stop offset="0" stop-color="#72accc"/>
      <stop offset=".49" stop-color="#3e729c"/>
      <stop offset=".74" stop-color="#528cb3"/>
      <stop offset="1" stop-color="#3d76a3"/>
    </linearGradient>
    <linearGradient id="linear-gradient-2" x1="67.16" y1="2.72" x2="37.66" y2="82.08" gradientUnits="userSpaceOnUse">
      <stop offset=".29" stop-color="#b0d3e5"/>
      <stop offset="1" stop-color="#7ab3d1"/>
    </linearGradient>
    <linearGradient id="linear-gradient-3" x1="44.52" y1="27.35" x2="77.26" y2="90.88" gradientUnits="userSpaceOnUse">
      <stop offset="0" stop-color="#b4ddeb"/>
      <stop offset="1" stop-color="#60a3c4"/>
    </linearGradient>
    <linearGradient id="linear-gradient-4" x1="71.75" y1="58.35" x2="84.74" y2="93.61" gradientUnits="userSpaceOnUse">
      <stop offset="0" stop-color="#549ebe"/>
      <stop offset="1" stop-color="#3e86aa"/>
    </linearGradient>
  </defs>
  <g id="Generative_Object" data-name="Generative Object">
    <path class="cls-9" d="M122.9,53.77c-.68.54-7.37,4.16-7.18,4.59l8.85,3.51-9.02,4.01,8.35,5.01-9.35,2.5,7.51,6.01-10.02,1.17,6.68,7.18-9.68-.17,5.34,7.85-9.43-1.42,3.92,8.6-9.1-2.76,2.92,8.77-8.43-3.92,1.34,9.18-7.85-5.18v9.68l-7.01-6.35-1.17,9.35-6.01-7.51-2.67,9.35-4.84-8.52-3.67,9.02-3.84-8.85-5.01,8.35-2.67-9.35-6.01,7.51-1.34-9.52-6.68,6.51-.17-9.68-7.85,5.18,1.67-9.35-8.68,4.34,2.67-9.18-8.93,2.92,4.17-8.68-9.68,1.5,5.51-7.85-9.68.17,6.35-7.18-9.85-1.17,7.51-6.09c1.15-.59,4.96.72,6.35.83.07.27.23,1.78.42,1.84l1.25-1.34c3.34,11.14,12.44,21.73,22.63,27.22,36.44,19.63,78.34-16.05,65.54-54.94.42.86,1.14,3.17,1.67,3.76s4.7,1.71,5.76,1.92c3.02.6,6.4.55,9.43,1.17Z"/>
    <path class="cls-2" d="M108.37,22.54c-2.9.84-5.47,2.62-8.27,3.67-1.5.56-4.77.96-6.01,1.67-.41.23-.05.36-.08.67C68.84,4.28,26.79,15.98,17.53,49.26c-.33-.16-.37-.38-.67.08-.95,1.46-2.07,9.28-2.17,11.27-.23,4.66.38,9.03,1.5,13.53-1.39-.11-5.19-1.42-6.35-.83l-9.02-2.42,8.01-5.01L0,61.87l8.85-3.67L.83,53.18l9.02-2.67-6.93-6.26,9.27-1.09-6.18-6.85h9.52l-5.18-7.85,9.27,1.42-4.09-8.43,9.1,2.76-2.92-9.1,8.6,4.26-1.59-9.27,7.93,4.93V5.68l6.85,6.01,1.34-9.02,6.01,6.85,2.84-9.02,4.68,7.85L62.37,0l3.67,8.52,4.84-8.01,2.84,9.02,5.84-7.01,1.34,9.35,6.85-6.18v9.52l7.85-5.34-1.5,9.52,8.52-4.51-2.92,9.27,9.1-2.92.17.33c-.02.28-.49.78-.58,1Z"/>
    <path class="cls-4" d="M108.37,22.54c-1.07,2.47-2.39,4.81-3.51,7.26l9.1-1.59-5.09,8.1,9.43-.08c-.09.65-.73.92-1.09,1.34-2.76-.92-5.66.87-8.1,1.17-2.23.27-4.83-.18-7.1,0-2.19-3.75-4.89-7.17-8.01-10.19.04-.31-.32-.44.08-.67,1.25-.71,4.51-1.11,6.01-1.67,2.8-1.05,5.37-2.83,8.27-3.67Z"/>
    <path class="cls-4" d="M117.22,37.57c-1.65,1.93-3.47,3.71-5.18,5.59l9.68,1.34-7.18,6.01c.9.61,9.11,2.2,9.02,2.84-.24.11-.47.26-.67.42-3.03-.62-6.42-.57-9.43-1.17-1.06-.21-5.21-1.31-5.76-1.92s-1.25-2.89-1.67-3.76c-1.32-2.74-2.47-5.55-4.01-8.18,2.27-.18,4.86.27,7.1,0,2.44-.29,5.34-2.09,8.1-1.17Z"/>
    <path class="cls-8" d="M16.03,60.78c-.04,4.62.51,9.42,1.84,13.86l-1.25,1.34c-.19-.06-.35-1.57-.42-1.84-1.12-4.49-1.74-8.86-1.5-13.53l1.34.17Z"/>
    <path class="cls-4" d="M17.53,49.26c-1.04,3.73-1.47,7.65-1.5,11.52l-1.34-.17c.1-1.99,1.22-9.81,2.17-11.27.3-.46.34-.24.67-.08Z"/>
    <g>
      <path class="cls-6" d="M93.51,36.4c4.35,5.77,7.31,12.15,8.35,19.37-3.5-2.88-6.71-6.26-9.68-9.68-.87-1-1.54-2.25-2.67-3.01-1.45-3.67-6.44-4.92-9.6-2.67l-26.05,30.89-12.69-12.86c-6.33-4.39-14.05,3.06-7.93,10.19.79,1.88,2.57,3.42,4.01,4.93,4,4.18,9.82,10.41,14.19,13.94l13.36,13.78-.67.42c-26.1,1.16-46.83-22.86-41.24-48.59,7.25-33.43,48.01-42.66,70.63-16.7Z"/>
      <path class="cls-7" d="M22.88,53.1c-5.58,25.73,15.14,49.75,41.24,48.59,23.43-1.04,41.08-22.74,37.74-45.92-1.04-7.22-4-13.59-8.35-19.37,16.78,19.26,9.43,49.58-12.77,61.11-30.54,15.87-65.39-12.1-58.36-43.66.04-.2.18-.86.5-.75Z"/>
      <path class="cls-5" d="M101.86,55.77c3.35,23.18-14.31,44.88-37.74,45.92l.67-.42-13.36-13.78c6.46,5.22,8.84-.34,12.69-4.68,9.32-10.49,18.12-21.43,27.38-31.98.87-1.57.95-3.01.67-4.76,2.97,3.43,6.19,6.81,9.68,9.68Z"/>
      <path class="cls-7" d="M89.5,43.08c.84,2.12.57,3.94-.5,5.93l-26.88,31.81c-2.93,3.02-5.07,7.3-10.1,5.68-1.74-.56-16.76-15.51-18.78-17.87-6.12-7.12,1.6-14.58,7.93-10.19l12.69,12.86,26.05-30.89c3.16-2.25,8.15-.99,9.6,2.67Z"/>
      <path class="cls-3" d="M92.17,46.09c.28,1.75.2,3.19-.67,4.76-9.26,10.54-18.06,21.49-27.38,31.98l-2.17-1.59.17-.42,26.88-31.81c1.07-1.98,1.34-3.81.5-5.93,1.13.76,1.8,2,2.67,3.01Z"/>
      <path class="cls-1" d="M62.12,80.82l-.17.42,2.17,1.59c-3.85,4.33-6.23,9.89-12.69,4.68-4.37-3.53-10.19-9.76-14.19-13.94-1.44-1.5-3.22-3.04-4.01-4.93,2.02,2.35,17.05,17.31,18.78,17.87,5.04,1.62,7.18-2.66,10.1-5.68Z"/>
    </g>
  </g>
</svg>