<?xml version="1.0" encoding="UTF-8"?>
<svg id="Layer_1" data-name="Layer 1" xmlns="http://www.w3.org/2000/svg" viewBox="0 0 87.2 124">
  <defs>
    <style>
      .cls-1 {
        fill: #4aa4da;
      }

      .cls-2 {
        fill: #fff;
      }
    </style>
  </defs>
  <g id="Generative_Object" data-name="Generative Object">
    <path class="cls-1" d="M84.59,67.37c.11.31.22.43.23.45.07.22.15.46.23.68s.16.47.23.68c.07.22.17.49.23.68.07.25.2.56.23.68.08.28.16.62.23.9s.17.64.23.9c.06.29.18.65.23.9.07.35.17.8.23,1.13.07.42.18.96.23,1.36.06.5.19,1.12.23,1.58.18,2.31.15,5.82,0,8.14-.05.55-.15,1.24-.23,1.81-.04.38-.16.94-.23,1.36-.05.32-.16.78-.23,1.13-.03.17-.16.6-.23.9-.08.37-.14.79-.23,1.13-.02.09-.15.41-.23.68-.08.29-.15.63-.23.9-.06.19-.16.46-.23.68-.06.2-.15.46-.23.68s-.15.46-.23.68c-.11.31-.32.78-.45,1.13-4.37,10.28-12.2,18.49-22.16,23.51-.1.05-.31.05-.68.23-.28.14-.66.34-.9.45-.13.06-.35.08-.68.23-.28.11-.43.22-.45.23-.21.08-.46.15-.68.23s-.46.16-.68.23-.47.16-.68.23c-.22.07-.49.17-.68.23-.25.07-.56.19-.68.23-.28.08-.62.16-.9.23s-.63.16-.9.23c-.29.07-.64.17-.9.23-.36.07-.78.16-1.13.23s-.81.18-1.13.23c-.43.06-.96.18-1.36.23-.64.07-1.41.18-2.03.23-2.32.16-5.58.13-7.91,0-.7-.05-1.56-.14-2.26-.23-.38-.04-.93-.17-1.36-.23-.43-.07-.93-.15-1.36-.23-.18-.03-.58-.16-.9-.23-.35-.07-.79-.15-1.13-.23-.06-.01-.4-.16-.68-.23-.29-.07-.63-.15-.9-.23-.3-.09-.63-.14-.9-.23-.21-.07-.46-.15-.68-.23s-.47-.15-.68-.23c-.02,0-.17-.12-.45-.23-.23-.08-.47-.15-.68-.23-.35-.13-.78-.31-1.13-.45-10.6-4.65-19.62-13.38-23.96-24.19-.08-.19-.13-.43-.23-.68-.08-.21-.14-.45-.23-.68-.07-.21-.16-.46-.23-.68s-.16-.47-.23-.68c-.07-.22-.17-.48-.23-.68-.08-.28-.15-.61-.23-.9-.07-.28-.16-.62-.23-.9s-.17-.65-.23-.9c-.07-.35-.17-.79-.23-1.13s-.18-.81-.23-1.13c-.08-.56-.17-1.25-.23-1.81-.08-.83-.2-1.9-.23-2.71-.05-1.15-.06-2.47,0-3.62.03-.81.14-1.89.23-2.71.05-.48.15-1.09.23-1.58.05-.33.16-.78.23-1.13s.15-.78.23-1.13c.06-.27.16-.61.23-.9.06-.27.15-.62.23-.9.03-.1.15-.43.23-.68.05-.18.16-.46.23-.68.06-.2.15-.46.23-.68s.15-.47.23-.68c.1-.3.31-.76.45-1.13.09-.24.15-.47.23-.68.1-.25.15-.48.23-.68.04-.1.28-.49.45-.9,3.85-9.09,9.8-18.98,14.92-27.47C26.44,25.07,35.17,12.52,43.79,0c11.86,18.13,24.83,36.07,34.93,55.28,1.96,3.72,4.3,8.24,5.88,12.1Z"/>
    <path class="cls-2" d="M33.73,71.44c.59.05,1.45.13,2.03.23.32.05.8.15,1.13.23.26.06.65.15.9.23.19.05.47.16.68.23s.48.15.68.23c.24.09.53.16.68.23,4.2,1.81,7.99,5.96,9.72,10.17.07.2.17.49.23.68.07.22.21.62.23.68.07.31.22.64.23.68.08.41.17.95.23,1.36.12,1.45.13,3.99,0,5.43-.05.39-.14.98-.23,1.36,0,.03-.16.44-.23.68-.05.25-.15.66-.23.9,0,.02-.11.11-.23.45-1.83,4.53-5.67,8.52-10.17,10.4-.18.08-.45.14-.68.23-.19.07-.48.16-.68.23-.22.07-.57.2-.68.23-.32.08-.78.16-1.13.23-.38.08-.98.18-1.36.23-1.09.07-2.53.07-3.62,0-.45-.05-1.14-.14-1.58-.23-.35-.07-.81-.14-1.13-.23-.1-.03-.46-.16-.68-.23-.2-.06-.48-.16-.68-.23-.22-.08-.49-.15-.68-.23-4.02-1.65-8.25-5.73-9.95-9.72-.08-.18-.15-.46-.23-.68-.07-.19-.17-.49-.23-.68-.06-.21-.21-.63-.23-.68-.06-.25-.21-.78-.23-.9-.06-.34-.21-.96-.23-1.13-.15-1.34-.12-4.07,0-5.43.04-.38.15-.96.23-1.36,0-.04.15-.36.23-.68.07-.27.15-.67.23-.9.07-.21.15-.5.23-.68,1.63-4.05,6.09-8.62,10.17-10.17.19-.07.47-.16.68-.23.25-.08.62-.15.9-.23.26-.07.65-.17.9-.23.33-.07.82-.18,1.13-.23.58-.09,1.46-.19,2.03-.23.52-.03,1.06,0,1.58,0Z"/>
  </g>
</svg>